HIERARCHY
ROOT Bip001_Pelvis
{
  OFFSET 34.4345 95.6767 -26.8758
  CHANNELS 6 Xposition Yposition Zposition Zrotation Xrotation Yrotation
  JOINT Bip001_Spine
  {
    OFFSET 1.4188e-005 10.2191 -0.0116013
    CHANNELS 3 Zrotation Xrotation Yrotation
    JOINT Bip001_L_Thigh
    {
      OFFSET 11.0458 -10.2192 0.0116197
      CHANNELS 3 Zrotation Xrotation Yrotation
      JOINT Bip001_L_Calf
      {
        OFFSET -0.707118 -44.0221 0.360014
        CHANNELS 3 Zrotation Xrotation Yrotation
        JOINT Bip001_L_Foot
        {
          OFFSET -0.651902 -40.5938 -3.56146
          CHANNELS 3 Zrotation Xrotation Yrotation
          JOINT Bip001_L_Toe0
          {
            OFFSET 0.0530839 -10.2181 13.1504
            CHANNELS 3 Zrotation Xrotation Yrotation
            End Site
            {
              OFFSET -1.02532e-005 0 7.55606
            }
          }
        }
      }
    }
    JOINT Bip001_R_Thigh
    {
      OFFSET -11.0458 -10.2191 0.0115893
      CHANNELS 3 Zrotation Xrotation Yrotation
      JOINT Bip001_R_Calf
      {
        OFFSET 0.706994 -44.0221 0.35984
        CHANNELS 3 Zrotation Xrotation Yrotation
        JOINT Bip001_R_Foot
        {
          OFFSET 0.651786 -40.5938 -3.5613
          CHANNELS 3 Zrotation Xrotation Yrotation
          JOINT Bip001_R_Toe0
          {
            OFFSET -0.0531479 -10.2181 13.1504
            CHANNELS 3 Zrotation Xrotation Yrotation
            End Site
            {
              OFFSET -1.02894e-005 0 7.55606
            }
          }
        }
      }
    }
    JOINT Bip001_Spine1
    {
      OFFSET 1.87041e-005 14.5736 1.08638
      CHANNELS 3 Zrotation Xrotation Yrotation
      JOINT Bip001_Spine2
      {
        OFFSET 2.24614e-005 14.5058 -1.69078
        CHANNELS 3 Zrotation Xrotation Yrotation
        JOINT Bip001_Neck
        {
          OFFSET 2.20278e-005 15.3945 -0.489414
          CHANNELS 3 Zrotation Xrotation Yrotation
          JOINT Bip001_L_Clavicle
          {
            OFFSET 6.06036 -0.000579998 0.00836775
            CHANNELS 3 Zrotation Xrotation Yrotation
            JOINT Bip001_L_UpperArm
            {
              OFFSET 11.5509 -0.0600302 0.00193952
              CHANNELS 3 Zrotation Xrotation Yrotation
              JOINT Bip001_L_Forearm
              {
                OFFSET 25.9523 0.0806089 -2.15551
                CHANNELS 3 Zrotation Xrotation Yrotation
                JOINT Bip001_L_Hand
                {
                  OFFSET 32.2475 0.153767 1.63968
                  CHANNELS 3 Zrotation Xrotation Yrotation
                  JOINT Bip001_L_Finger0
                  {
                    OFFSET 6.04639 -2.20976 5.90322
                    CHANNELS 3 Zrotation Xrotation Yrotation
                    End Site
                    {
                      OFFSET 4.22375 -1.43895 0.606485
                    }
                  }
                  JOINT Bip001_L_Finger1
                  {
                    OFFSET 11.0826 -0.704819 -0.198153
                    CHANNELS 3 Zrotation Xrotation Yrotation
                    End Site
                    {
                      OFFSET 6.20027 -0.397518 -0.0787166
                    }
                  }
                }
              }
            }
          }
          JOINT Bip001_R_Clavicle
          {
            OFFSET -6.06037 -0.000563197 0.00835105
            CHANNELS 3 Zrotation Xrotation Yrotation
            JOINT Bip001_R_UpperArm
            {
              OFFSET -11.5509 -0.0599978 0.00190698
              CHANNELS 3 Zrotation Xrotation Yrotation
              JOINT Bip001_R_Forearm
              {
                OFFSET -25.9523 0.0806822 -2.15589
                CHANNELS 3 Zrotation Xrotation Yrotation
                JOINT Bip001_R_Hand
                {
                  OFFSET -32.2475 0.153859 1.63989
                  CHANNELS 3 Zrotation Xrotation Yrotation
                  JOINT Bip001_R_Finger0
                  {
                    OFFSET -6.04641 -2.20976 5.90317
                    CHANNELS 3 Zrotation Xrotation Yrotation
                    End Site
                    {
                      OFFSET -4.22376 -1.43895 0.60647
                    }
                  }
                  JOINT Bip001_R_Finger1
                  {
                    OFFSET -11.0826 -0.704794 -0.198182
                    CHANNELS 3 Zrotation Xrotation Yrotation
                    End Site
                    {
                      OFFSET -6.20028 -0.397504 -0.0787333
                    }
                  }
                }
              }
            }
          }
          JOINT Bip001_Head
          {
            OFFSET 1.09673e-005 11.2744 2.05948
            CHANNELS 3 Zrotation Xrotation Yrotation
            End Site
            {
              OFFSET 2.89576e-005 20.8808 -2.77728e-005
            }
          }
        }
      }
    }
  }
}
MOTION
Frames:	8
Frame Time:	0.04
33.5578 96.002 -27.613 0.346401 -0.756634 0.776797 -0.310946 2.06609 -0.133904 4.78764 -0.92136 3.78787 -0.753079 5.44892 -2.73282 1.83648 -4.35078 -0.0104086 0.785502 -3.58736 -0.40251 -3.44649 -1.68449 0.625361 0.498412 9.26202 0.220917 -5.92497 -8.81895 0.790879 2.24977 -7.61482 2.30863 -0.62536 4.15553 -0.256993 -0.625328 4.15553 -0.257004 1.78637 -7.16355 -1.8504 -25.7815 7.87868 0.857965 -59.5155 44.5189 6.07 16.5008 -1.1838 -22.1165 8.18343 1.22911 -3.26031 -3.18055e-015 9.54166e-015 1.59028e-015 -1.76556e-031 6.36111e-015 1.59028e-015 22.7344 14.9669 19.9879 66.4444 45.7214 -12.0636 -23.8112 20.0071 14.5988 -6.31203 -0.630874 9.21604 3.18055e-015 7.95139e-016 1.19271e-015 4.77083e-015 7.95139e-016 1.19271e-015 -1.94752 -7.4603 -1.06934 
33.5701 96.0085 -27.603 0.407017 -0.779281 0.705063 -0.310792 2.06609 -0.138189 4.65917 -0.785019 3.76097 -0.673842 5.23691 -2.62604 1.90037 -4.20526 -0.0104066 0.868337 -3.6483 -0.447915 -3.53769 -1.72929 0.693045 0.542619 9.37522 0.182257 -5.90838 -8.87196 0.830957 2.22997 -7.53209 2.27052 -0.637337 4.15545 -0.261996 -0.637474 4.15545 -0.262016 1.74694 -7.18382 -1.79606 -25.7705 7.896 0.90828 -59.6651 44.5909 6.07719 16.6573 -1.07303 -22.1631 8.24264 1.13067 -3.37586 3.18055e-015 -6.36111e-015 -0 -0 0 1.59028e-015 22.5824 14.9634 20.1206 66.3542 45.4388 -11.811 -23.3924 19.8042 14.512 -5.8285 -0.927844 9.16761 1.59028e-015 -1.19271e-015 9.93923e-016 4.77083e-015 -3.97569e-016 1.39149e-015 -1.8867 -7.38509 -1.03498 
33.554 96.0082 -27.5932 0.3775 -0.798973 0.718116 -0.310449 2.06609 -0.147692 4.71734 -0.77935 3.84594 -0.708046 5.28104 -2.78251 2.02001 -4.16005 -0.0104291 0.857566 -3.728 -0.440788 -3.51163 -1.65957 0.671221 0.563974 9.30237 0.154765 -5.87355 -8.85917 0.885587 2.21715 -7.49259 2.25563 -0.620233 4.1407 -0.286736 -0.620119 4.1407 -0.286674 1.78678 -7.08994 -1.78672 -25.8022 7.80212 0.898088 -59.6993 44.7361 6.08955 16.7904 -0.900799 -22.1753 8.30249 1.05097 -3.49358 -3.18055e-015 9.54166e-015 -0 0 1.27222e-014 -0 22.5599 14.937 20.3272 66.5145 45.7039 -12.4666 -23.5525 19.1391 14.8168 -5.41199 -0.911371 9.16806 -6.36111e-015 -1.59028e-015 -6.95746e-016 -7.95139e-015 -1.19271e-015 -9.93923e-017 -1.85587 -7.47621 -1.0201 
33.5454 96.0062 -27.5952 0.382642 -0.773519 0.652211 -0.310858 2.0661 -0.136346 4.72424 -0.791867 3.74667 -0.750227 5.27869 -2.64071 2.14138 -4.08931 -0.0106068 0.91051 -3.77944 -0.481805 -3.52432 -1.7 0.754312 0.595075 9.32172 0.101603 -5.88276 -8.88598 0.883338 2.21017 -7.46418 2.24595 -0.6199 4.13156 -0.261715 -0.619822 4.13157 -0.261746 1.86353 -6.94838 -1.81491 -25.8675 7.6585 0.860784 -59.6441 44.9013 6.02704 16.7733 -0.958687 -22.1318 8.36455 1.15136 -3.4617 -3.18055e-015 3.18055e-015 -0 -3.18055e-015 6.36111e-015 -0 22.4501 14.8516 20.5365 66.8832 46.1645 -13.4254 -24.0363 18.3044 15.2875 -5.36929 -0.781409 9.11202 -1.59028e-015 3.97569e-016 -9.93923e-016 0 0 -1.39149e-015 -1.84834 -7.65566 -1.0334 
33.5502 96.0075 -27.6127 0.416658 -0.751152 0.594422 -0.311035 2.06826 -0.131292 4.66662 -0.813238 3.79881 -0.696535 5.27064 -2.63731 2.00502 -4.13358 -0.0109489 0.867695 -3.71373 -0.457072 -3.56927 -1.80759 0.817387 0.609026 9.43684 0.0811399 -5.87955 -8.91475 0.882922 2.20869 -7.47187 2.26074 -0.618674 4.13714 -0.236905 -0.618675 4.13714 -0.236898 1.8881 -6.88077 -1.83834 -25.8599 7.60065 0.801437 -59.5482 44.9897 5.9282 16.6775 -1.11032 -22.0671 8.35343 1.2363 -3.41946 3.18055e-015 -9.54166e-015 4.77083e-015 6.36111e-015 -3.18056e-015 1.59028e-015 22.2803 14.7817 20.6458 67.2911 46.4892 -14.2067 -24.5462 17.6248 15.7148 -5.5961 -0.826093 9.09365 -1.59028e-015 -3.97569e-016 -7.95139e-016 -3.18055e-015 -3.97569e-016 -7.95139e-016 -1.82923 -7.80228 -1.05515 
33.5216 96.0047 -27.5855 0.326733 -0.896695 0.629313 -0.288809 2.09833 -0.132293 4.77509 -0.77335 4.18924 -0.706494 5.45346 -3.07558 2.18157 -4.1606 -0.0114371 0.934868 -3.8211 -0.488339 -3.46729 -1.59668 0.727197 0.568561 9.28722 0.0811704 -5.84029 -8.86706 0.950865 2.20334 -7.45604 2.26625 -0.573746 4.1987 -0.248096 -0.573709 4.19871 -0.248095 1.90371 -6.76994 -1.84369 -25.835 7.49855 0.753638 -59.4862 44.9188 5.91289 16.6396 -1.13988 -22.103 8.27455 1.19006 -3.42047 -3.18055e-015 3.18055e-015 -0 -3.18055e-015 3.18056e-015 -0 22.1862 14.6512 20.6581 67.2935 46.3072 -14.4897 -24.9363 17.6182 16.0722 -5.7047 -0.948712 9.24774 3.18055e-015 1.59028e-015 3.97569e-016 3.18055e-015 1.19271e-015 3.97569e-016 -1.82565 -8.00172 -1.05622 
33.5337 95.9987 -27.6075 0.369687 -0.874265 0.648906 -0.288643 2.09384 -0.138356 4.74142 -0.818076 4.25513 -0.738149 5.47946 -3.16687 2.1862 -4.16902 -0.0120549 0.908772 -3.80062 -0.471122 -3.52536 -1.64832 0.666135 0.568 9.34087 0.0882687 -5.84289 -8.91878 0.98093 2.20679 -7.46809 2.27004 -0.568237 4.19907 -0.269481 -0.568405 4.19909 -0.269487 1.85026 -6.76536 -1.80873 -25.7485 7.50804 0.733965 -59.5217 44.8339 5.9488 16.6257 -1.12163 -22.1337 8.31041 1.17847 -3.44206 3.18055e-015 9.54166e-015 1.59028e-015 3.18055e-015 6.36111e-015 -0 22.0648 14.595 20.65 67.3102 45.7865 -14.5696 -25.2037 18.0502 16.3597 -6.03622 -0.986342 8.95181 -3.18055e-015 -1.19271e-015 -7.95139e-016 -1.93108e-032 -7.95139e-016 -1.39149e-015 -1.82066 -7.98282 -1.04052 
33.56 95.9977 -27.6328 0.447396 -0.833297 0.626862 -0.2982 2.09042 -0.141617 4.64158 -0.810483 4.20155 -0.722932 5.36443 -3.09308 2.16299 -4.11689 -0.0127849 0.89571 -3.79638 -0.455968 -3.61374 -1.77596 0.688893 0.573447 9.4954 0.115324 -5.85191 -8.97248 0.970391 2.21636 -7.49609 2.27018 -0.589997 4.18154 -0.273521 -0.590043 4.18155 -0.273201 1.8588 -6.77491 -1.79692 -25.7495 7.5267 0.707791 -59.5821 44.8617 6.03216 16.557 -1.30473 -22.1326 8.32216 1.21183 -3.38396 -3.18055e-015 -3.18055e-015 -0 -3.18055e-015 0 -0 22.0403 14.5974 20.6536 67.3198 45.5658 -14.8859 -25.5303 18.2398 16.6383 -6.47048 -1.15417 8.72232 -6.89673e-033 -3.97569e-016 -9.93923e-016 -3.18055e-015 -3.97569e-016 -1.19271e-015 -1.827 -7.9355 -1.0247 
